<svg width="14" height="16" viewBox="0 0 14 16" fill="none" xmlns="http://www.w3.org/2000/svg">
<rect width="10" height="1" fill="black"/>
<rect y="15" width="2" height="1" fill="black"/>
<rect x="8" y="15" width="6" height="1" fill="black"/>
<rect width="1" height="16" fill="black"/>
<rect x="13" y="10" width="1" height="6" fill="black"/>
<path d="M2 2H10V4H12V9H2V2Z" fill="#C4C4C4"/>
<rect x="2" y="2" width="2" height="12" fill="#C4C4C4"/>
<rect width="1" height="3" transform="matrix(-1 0 0 1 12 11)" fill="#C4C4C4"/>
<rect width="3" height="1" transform="matrix(-1 0 0 1 12 13)" fill="#C4C4C4"/>
<rect x="10" y="4" width="4" height="1" fill="black"/>
<rect x="3" y="12" width="3" height="1" fill="black"/>
<rect x="13" y="4" width="1" height="3" fill="black"/>
<rect x="11" y="7" width="1" height="2" fill="black"/>
<rect x="8" y="10" width="2" height="1" fill="black"/>
<rect x="10" width="1" height="4" fill="#878787"/>
<rect x="11" y="1" width="1" height="1" fill="#878787"/>
<rect x="12" y="2" width="1" height="1" fill="#878787"/>
<rect x="13" y="3" width="1" height="1" fill="#878787"/>
<rect x="4" y="9" width="4" height="3" fill="#C4C4C4"/>
<path d="M3 9H4V10H5V11H6V12H3V9Z" fill="#F83BE0"/>
<rect x="3" y="8" width="1" height="1" fill="#FD3603"/>
<rect x="4" y="9" width="1" height="1" fill="#FD3603"/>
<rect x="5" y="10" width="1" height="1" fill="#FD3603"/>
<rect x="6" y="11" width="1" height="1" fill="#FD3603"/>
<rect x="9" y="8" width="1" height="1" fill="#02FAFC"/>
<rect x="10" y="9" width="1" height="1" fill="#013396"/>
<path d="M8 7H11V9H10V8H9V9H10V10H8V7Z" fill="#0164FD"/>
<rect x="7" y="4" width="1" height="2" fill="black"/>
<rect x="5" y="6" width="2" height="1" fill="black"/>
<rect x="5" y="4" width="1" height="1" fill="#01F146"/>
<path d="M7 6L4 6L4 4L5 4L5 5L6 5L6 4L5 4L5 3L7 3L7 6Z" fill="#008A1D"/>
</svg>
