<?xml version="1.0" encoding="UTF-8" standalone="no"?><!DOCTYPE svg PUBLIC "-//W3C//DTD SVG 1.1//EN" "http://www.w3.org/Graphics/SVG/1.1/DTD/svg11.dtd"><svg width="100%" height="100%" viewBox="0 0 981 442" version="1.1" xmlns="http://www.w3.org/2000/svg" xmlns:xlink="http://www.w3.org/1999/xlink" xml:space="preserve" xmlns:serif="http://www.serif.com/" style="fill-rule:evenodd;clip-rule:evenodd;stroke-linejoin:round;stroke-miterlimit:2;"><g id="logo"><g><path d="M980.904,441.662l0,-442.488l-980.904,0l0,442.489l980.904,-0.001Z"/><path d="M687.532,223.065l0,-2.237c0,-2.058 -0.062,-4.113 -0.121,-6.171l42.513,-11.004l30.475,9.796l36.829,-18.442l25.337,23.704l37.917,-22.8l11.125,37.496l51.825,-36.767l4.717,6.588l-61.138,43.362l-11.308,-38.341l-34.229,20.558l-25.638,-24.004l-34.771,17.354l-31.383,-10.037l-42.15,10.945Z" style="fill:#fff;fill-rule:nonzero;"/><path d="M223.897,217.44l-37.917,20.862l-24.371,-21.891l-36.225,23.466l-9.008,-37.433l-58.896,42.392l-4.717,-6.592l68.63,-49.408l9.191,38.037l31.813,-20.679l24.733,22.254l37.55,-20.741l22.438,17.837l46.379,-10.825c-0.063,2.054 -0.117,4.05 -0.117,6.108l0,2.238l-48.2,11.246l-21.283,-16.871Z" style="fill:#fff;fill-rule:nonzero;"/><path d="M682.632,224.337l0,-0.004l4.9,-1.266c-1.212,107.637 -89.137,194.837 -197.079,194.837c-107.941,0 -195.866,-87.2 -197.075,-194.837l70.085,-16.389l4.354,12.638l-34.65,7.921l23.28,22.495l24.191,-18.325l-2.175,-6.225l39.729,-9.133l12.7,18.446l16.205,-16.75l-67.188,100.437l-31.624,28.608l18.262,5.925l19.533,-29.208l174.946,-158.254l-57.146,79.158l5.688,5.625l49.642,-36.041l6.895,14.454l54.846,-12.038l3.809,22.921l57.872,-14.995Zm-313.907,-27.217l-75.23,17.602c3.208,-105.825 90.346,-190.971 196.958,-190.971c106.613,0 193.692,85.084 196.959,190.909l-4.78,1.27l0,-0.003l-51.279,13.304l-2.479,-14.571l17.659,-3.871l7.983,-25.337l-37.433,7.679l2.541,15.3l-48.983,10.704l-8.284,-17.475l-37.012,26.908l64.588,-89.437l41.904,-37.917l-0.907,-0.844l0,0l-13.909,-12.7l-33.137,46.016l-179.238,162.125l74.2,-110.962l-6.291,-5.084l-40.638,41.971l-10.158,-14.816l-45.959,10.52l-7.075,-20.32Zm2.299,31.388l-13.908,10.583l-7.558,-7.258l20.983,-4.838l0.483,1.513Zm248.718,-127.354l-7.012,6.35l5.562,-7.679l1.45,1.329Zm22.919,95.001l-2.421,7.737l-12.696,2.784l-1.208,-7.196l16.325,-3.325Z" style="fill:#fff;fill-rule:nonzero;"/></g></g></svg>